<svg id="SvgjsSvg1418" width="288" height="288" xmlns="http://www.w3.org/2000/svg" version="1.1" xmlns:xlink="http://www.w3.org/1999/xlink" xmlns:svgjs="http://svgjs.com/svgjs"><defs id="SvgjsDefs1419"></defs><g id="SvgjsG1420"><svg xmlns="http://www.w3.org/2000/svg" viewBox="0 0 24 24" width="288" height="288"><path d="M19.7.5H4.3C2.2.5.5 2.2.5 4.3v15.4c0 2.1 1.7 3.8 3.8 3.8h15.4c2.1 0 3.8-1.7 3.8-3.8V4.3c0-2.1-1.7-3.8-3.8-3.8zM8 18.7H5.9V9.9H8v8.8zm-1.1-11c-.8 0-1.4-.5-1.4-1.2s.6-1.2 1.4-1.2c.8 0 1.4.5 1.4 1.2s-.6 1.2-1.4 1.2zm11.6 11H16V15c0-1.7-.8-2.7-2.2-2.7-1 0-1.7.5-2.1 1.5-.1.3-.1.6-.1.9v4H9V9.9h2.5v1c0 .2.2.4.4.5.2 0 .5-.1.5-.3.1-.4 1-1.3 2.6-1.3 2.2 0 3.4 1.4 3.4 4v4.9z" fill="#ffffff" class="color000 svgShape"></path></svg></g></svg>